<?xml version="1.0" encoding="UTF-8" standalone="no"?>
<!-- Created with Inkscape (http://www.inkscape.org/) -->

<svg
   xmlns:dc="http://purl.org/dc/elements/1.1/"
   xmlns:cc="http://creativecommons.org/ns#"
   xmlns:rdf="http://www.w3.org/1999/02/22-rdf-syntax-ns#"
   xmlns:svg="http://www.w3.org/2000/svg"
   xmlns="http://www.w3.org/2000/svg"
   xmlns:sodipodi="http://sodipodi.sourceforge.net/DTD/sodipodi-0.dtd"
   xmlns:inkscape="http://www.inkscape.org/namespaces/inkscape"
   width="800"
   height="600"
   viewBox="0 0 800 600.00002"
   id="svg2"
   version="1.1"
   inkscape:version="0.91 r13725"
   sodipodi:docname="hive.svg">
  <defs
     id="defs4" />
  <sodipodi:namedview
     id="base"
     pagecolor="#ffffff"
     bordercolor="#666666"
     borderopacity="1.0"
     inkscape:pageopacity="0.0"
     inkscape:pageshadow="2"
     inkscape:zoom="0.843859"
     inkscape:cx="56.458766"
     inkscape:cy="287.758"
     inkscape:document-units="px"
     inkscape:current-layer="layer1"
     showgrid="false"
     inkscape:window-width="1554"
     inkscape:window-height="949"
     inkscape:window-x="39"
     inkscape:window-y="2"
     inkscape:window-maximized="0"
     units="px" />
  <metadata
     id="metadata7">
    <rdf:RDF>
      <cc:Work
         rdf:about="">
        <dc:format>image/svg+xml</dc:format>
        <dc:type
           rdf:resource="http://purl.org/dc/dcmitype/StillImage" />
        <dc:title></dc:title>
      </cc:Work>
    </rdf:RDF>
  </metadata>
  <g
     inkscape:label="Layer 1"
     inkscape:groupmode="layer"
     id="layer1"
     transform="translate(0,-452.36165)">
    <g
       id="g4147"
       transform="translate(30.636169,573.62937)">
      <path
         sodipodi:nodetypes="ccccccccc"
         inkscape:connector-curvature="0"
         id="path3389"
         d="m 321.41953,77.699456 c 0,0 -13.47662,6.342151 -20.90772,14.860148 -8.33945,7.545326 -14.6613,19.095306 -12.05221,30.584796 1.04804,5.22474 5.26247,9.31661 10.4138,10.50671 14.95258,4.90067 30.8871,1.78474 45.99874,-0.61416 18.98509,-3.42069 38.85002,-9.12959 52.73468,-23.30034 11.32333,-11.488387 8.1629,-33.864652 -6.78989,-40.70676 -14.62007,-6.740349 -31.22035,-4.263953 -46.42715,-1.207165 -5.86779,0.961741 -19.40987,9.152876 -25.19218,10.469286"
         style="fill:none;fill-rule:evenodd;stroke:#000000;stroke-width:2.5999999;stroke-linecap:butt;stroke-linejoin:miter;stroke-miterlimit:4;stroke-dasharray:none;stroke-opacity:1" />
      <path
         inkscape:connector-curvature="0"
         id="path3391"
         d="m 288.83115,126.28577 c -14.52658,11.48088 -10.43255,38.92205 9.32853,41.68711 24.95103,6.5242 50.1639,-3.5831 74.76881,-7.19069 17.40173,-4.34924 39.13679,-4.71913 49.86024,-21.50181 10.64279,-14.27394 12.9443,-39.706617 -4.07809,-50.073659 -4.91724,-2.688894 -10.44377,-3.887176 -15.82017,-5.285847"
         style="fill:none;fill-rule:evenodd;stroke:#000000;stroke-width:2.5999999;stroke-linecap:butt;stroke-linejoin:miter;stroke-miterlimit:4;stroke-dasharray:none;stroke-opacity:1" />
      <path
         inkscape:connector-curvature="0"
         id="path3393"
         d="m 281.12844,157.39288 c -13.99609,12.97357 -16.22249,44.62006 7.5095,47.90777 36.89243,6.51108 74.95499,0.1634 110.88816,-9.07325 24.10573,-5.72826 51.56658,-19.07465 55.77431,-46.23591 3.629,-16.21973 -4.47439,-41.96144 -25.37856,-37.97332"
         style="fill:none;fill-rule:evenodd;stroke:#000000;stroke-width:2.5999999;stroke-linecap:butt;stroke-linejoin:miter;stroke-miterlimit:4;stroke-dasharray:none;stroke-opacity:1" />
      <path
         inkscape:connector-curvature="0"
         id="path3395"
         d="m 274.3145,197.98021 c -6.50529,16.99435 1.77374,43.99647 23.32075,42.77867 34.0823,1.57176 68.14716,-3.86043 101.61158,-9.83389 24.15639,-5.07074 50.35933,-12.20206 65.38685,-33.52545 14.91109,-18.23961 19.16711,-50.29158 -1.68071,-65.7911 -2.42889,-1.43395 -4.99137,-3.01299 -7.92108,-2.65636"
         style="fill:none;fill-rule:evenodd;stroke:#000000;stroke-width:2.5999999;stroke-linecap:butt;stroke-linejoin:miter;stroke-miterlimit:4;stroke-dasharray:none;stroke-opacity:1" />
      <path
         inkscape:connector-curvature="0"
         id="path3397"
         d="m 279.20276,232.93866 c -5.33356,20.66753 17.33861,35.91319 35.91809,35.14337 36.30588,3.21725 72.44651,-4.38836 107.80192,-11.69725 23.58798,-5.81132 50.24212,-21.08327 52.51116,-47.88625 0.55644,-7.00475 -1.14086,-14.26604 -5.29287,-19.99856"
         style="fill:none;fill-rule:evenodd;stroke:#000000;stroke-width:2.5999999;stroke-linecap:butt;stroke-linejoin:miter;stroke-miterlimit:4;stroke-dasharray:none;stroke-opacity:1" />
      <path
         inkscape:connector-curvature="0"
         id="path3399"
         d="m 302.16276,265.82331 c -7.44625,15.166 9.6038,30.17236 24.22184,29.93398 26.08533,3.45046 52.87894,2.80038 78.72944,-1.98879 18.3937,-4.47599 37.5264,-14.23536 45.04337,-32.70598 2.6119,-5.94692 4.28322,-12.42083 4.28195,-18.93985"
         style="fill:none;fill-rule:evenodd;stroke:#000000;stroke-width:2.5999999;stroke-linecap:butt;stroke-linejoin:miter;stroke-miterlimit:4;stroke-dasharray:none;stroke-opacity:1" />
      <path
         inkscape:connector-curvature="0"
         id="path3403"
         d="m 329.10118,296.63414 c 7.37435,7.1229 17.89686,9.51369 27.78352,10.55186 10.43204,1.06057 20.9421,0.002 31.23494,-1.76272 7.78977,-1.51867 15.43699,-3.82313 22.7375,-6.94075 2.59171,-2.79448 7.05029,-4.14039 8.06039,-8.15235 l 0.013,-0.68786"
         style="fill:none;fill-rule:evenodd;stroke:#000000;stroke-width:2.5999999;stroke-linecap:butt;stroke-linejoin:miter;stroke-miterlimit:4;stroke-dasharray:none;stroke-opacity:1" />
      <path
         inkscape:connector-curvature="0"
         id="path4394"
         d="m 414.74612,292.46924 c -18.3454,4.86165 -37.40109,6.63816 -56.38739,6.32122 -8.16595,0.10241 -16.30828,-0.2983 -24.42392,-0.82193 -0.65081,1.48611 2.37223,2.08911 3.34101,2.92786 18.31432,8.07926 39.24337,5.97555 58.2089,1.50907 6.95858,-2.00839 14.71984,-3.86223 19.83193,-9.3437 0.13626,-0.34806 -0.23955,-0.65686 -0.57053,-0.59252 z"
         style="fill:#ffdd55;fill-opacity:1;fill-rule:evenodd;stroke-width:2.5999999;stroke-miterlimit:4;stroke-dasharray:none" />
      <path
         inkscape:connector-curvature="0"
         id="path4396"
         d="m 452.41487,245.57831 c -11.14637,6.23483 -23.13927,10.83726 -35.70799,13.19652 -29.37976,6.00055 -59.12482,12.07816 -89.27933,10.82352 -8.22135,-0.0512 -16.43998,-0.44338 -24.54197,-1.435 -1.79329,1.24675 -0.6604,4.4256 -0.99061,6.36839 0.37259,8.59143 8.04414,14.97307 15.45287,18.0567 10.65195,3.2446 21.99287,3.35895 33.03786,3.8602 22.85582,0.31066 46.45251,-0.0918 68.10329,-8.2531 10.95985,-4.54173 21.41202,-11.7658 27.7058,-22.00072 3.33605,-6.37105 6.43276,-13.30995 6.67257,-20.55402 l -0.35528,-0.0972 -0.0972,0.0347 z"
         style="fill:#ffdd55;fill-opacity:1;fill-rule:evenodd;stroke-width:2.5999999;stroke-miterlimit:4;stroke-dasharray:none" />
      <path
         inkscape:connector-curvature="0"
         id="path4398"
         d="m 470.37436,191.40012 c -8.54608,14.08054 -21.81381,25.03694 -37.16412,30.94589 -23.99936,9.45559 -49.85238,12.47649 -75.19296,16.38601 -21.80546,3.03396 -44.02336,3.35258 -65.94511,2.51004 -4.90422,0.0919 -8.6031,-3.40575 -12.32712,-5.9402 -1.23373,9.30494 3.92754,18.89761 11.7393,24.10266 8.24651,6.09066 18.61317,7.95151 28.66024,7.86155 19.89233,0.36448 39.88125,-0.23305 59.47876,-3.94005 17.57322,-3.15962 35.38813,-5.67 52.47557,-10.97149 14.33915,-5.329 28.81531,-13.64093 36.74264,-27.19975 3.48048,-5.91378 5.69146,-12.64286 4.99595,-19.57477 0.25879,-4.93471 -0.5844,-10.01092 -3.10556,-14.26784 l -0.35759,0.088 z"
         style="fill:#ffdd55;fill-opacity:1;fill-rule:evenodd;stroke-width:2.5999999;stroke-miterlimit:4;stroke-dasharray:none" />
      <path
         inkscape:connector-curvature="0"
         id="path4400"
         d="m 456.76038,130.15455 c -1.73964,1.06657 0.1795,3.93499 10e-4,5.56988 2.01694,14.1488 -2.85894,29.19581 -13.16381,39.28313 -15.44856,16.00886 -38.07024,21.19329 -58.98726,25.98363 -23.25871,5.28402 -47.02624,8.70076 -70.94607,7.84478 -10.56357,-0.32913 -21.33253,-0.94327 -31.44859,-4.20724 -2.67281,-0.9222 -4.72441,-3.21089 -7.39025,-4.00642 -1.64543,3.36129 -1.17041,7.64788 -1.45351,11.37816 0.6091,10.96594 5.96732,23.48411 17.32762,26.88194 8.84543,1.35927 17.93335,0.39441 26.86574,0.49647 26.89392,-0.1476 53.50101,-4.7271 79.89632,-9.4619 21.12671,-4.3004 43.67353,-9.8054 59.41763,-25.55819 11.34384,-11.30866 19.60963,-26.71833 18.95726,-43.08672 0.19599,-11.92138 -5.83106,-24.50109 -16.49671,-30.29818 -0.82782,-0.33697 -1.67638,-0.76008 -2.57952,-0.81934 z"
         style="fill:#ffdd55;fill-opacity:1;fill-rule:evenodd;stroke-width:2.5999999;stroke-miterlimit:4;stroke-dasharray:none" />
      <path
         inkscape:connector-curvature="0"
         id="path4402"
         d="m 434.36743,112.75171 c -2.95793,0.30501 -1.71121,4.71898 -2.52745,6.62877 -2.10813,14.16523 -10.45882,28.30601 -24.26741,33.69896 -10.99946,4.86343 -23.16976,5.95435 -34.7627,8.82015 -19.57654,3.569 -39.06801,9.28882 -59.04375,9.35383 -7.58946,-0.50403 -15.38387,-1.39459 -22.44617,-4.19506 -3.74023,-1.99746 -6.83236,-4.98943 -9.07753,-8.54288 -2.72391,1.51411 -4.64859,4.9405 -6.30474,7.77099 -4.93409,9.75132 -6.05348,22.91985 1.21049,31.82806 6.13296,6.87587 16.23536,6.43092 24.59519,7.76554 22.68708,1.30305 45.60651,0.36077 67.91181,-4.2048 21.66665,-4.56596 44.50508,-8.19301 63.26502,-20.76837 12.89878,-8.3317 22.07351,-22.84648 21.78786,-38.47149 0.13488,-10.85406 -3.73135,-23.7489 -14.48258,-28.43155 -1.85172,-0.76535 -3.84134,-1.2948 -5.85804,-1.25215 z"
         style="fill:#ffdd55;fill-opacity:1;fill-rule:evenodd;stroke-width:2.5999999;stroke-miterlimit:4;stroke-dasharray:none" />
      <path
         inkscape:connector-curvature="0"
         id="path4404"
         d="m 406.05975,86.090801 c -1.83596,1.372358 0.0206,4.460877 -0.47911,6.38112 0.004,9.814729 -5.95783,18.600169 -13.90792,23.927459 -18.23553,13.51176 -41.37884,17.31202 -63.36681,20.18721 -11.63905,0.90925 -24.51951,1.79418 -34.94572,-4.36171 -2.09552,-0.7815 -4.09136,-5.48418 -5.99159,-3.00667 -9.42614,10.18175 -7.51892,29.37108 5.37246,35.78255 7.96558,3.35687 16.70535,3.81185 25.23378,3.35611 16.18082,0.36319 31.76134,-4.6058 47.55064,-7.37712 13.3582,-3.05218 27.12236,-4.81505 40.04012,-9.51428 12.76692,-5.02985 21.63064,-17.74002 23.69485,-31.06776 0.2471,-7.91235 1.2552,-16.78769 -4.14076,-23.385187 -4.18172,-6.509339 -11.84003,-9.392029 -19.05994,-10.921722 z"
         style="fill:#ffdd55;fill-opacity:1;fill-rule:evenodd;stroke-width:2.5999999;stroke-miterlimit:4;stroke-dasharray:none" />
      <path
         inkscape:connector-curvature="0"
         id="path4406"
         d="m 368.05887,66.01469 c -12.36305,0.419521 -24.95922,2.273805 -36.03314,8.109997 -13.06016,5.600148 -26.03291,12.647506 -34.98379,24.008806 -4.86821,5.695847 -8.18675,12.888557 -7.6766,20.504027 -0.6319,5.7471 2.82677,11.43618 8.3635,13.25176 11.5868,4.54766 24.3495,2.71314 36.40734,1.62479 19.58111,-3.18893 40.37209,-6.78368 56.43417,-19.29557 6.48044,-4.87961 12.48199,-11.76158 12.39489,-20.352083 0.99628,-10.058224 -4.57768,-20.602723 -14.19608,-24.324405 -6.49881,-2.801 -13.69268,-3.585683 -20.71029,-3.527322 z"
         style="fill:#ffdd55;fill-opacity:1;fill-rule:evenodd;stroke-width:2.5999999;stroke-miterlimit:4;stroke-dasharray:none" />
    </g>
  </g>
</svg>
